<?xml version="1.0" standalone="no"?>
<!DOCTYPE svg PUBLIC "-//W3C//DTD SVG 20010904//EN"
 "http://www.w3.org/TR/2001/REC-SVG-20010904/DTD/svg10.dtd">
<svg version="1.0" xmlns="http://www.w3.org/2000/svg"
 width="1188.000000pt" height="1280.000000pt" viewBox="0 0 1188.000000 1280.000000"
 preserveAspectRatio="xMidYMid meet">
<g transform="translate(0.000000,1280.000000) scale(0.100000,-0.100000)"
fill="#000000" stroke="none">
<path d="M4998 12785 c-98 -16 -171 -36 -215 -58 -42 -22 -103 -89 -127 -139
-29 -59 -66 -75 -206 -88 -286 -27 -300 -32 -300 -96 0 -31 2 -33 28 -28 18 4
32 1 41 -9 10 -13 8 -18 -11 -31 -13 -9 -40 -21 -61 -27 -38 -10 -71 -35 -79
-59 -2 -7 -41 -18 -91 -25 -105 -15 -161 -46 -217 -116 -54 -68 -58 -89 -28
-147 35 -69 58 -77 179 -61 103 13 126 9 93 -15 -29 -22 -8 -34 73 -38 49 -2
78 -9 89 -20 17 -17 14 -21 -29 -51 -15 -10 -21 -34 -29 -103 -5 -49 -21 -120
-35 -159 -39 -109 -39 -108 2 -139 44 -34 41 -49 -10 -56 -31 -4 -41 -10 -46
-30 -11 -39 -10 -492 1 -625 6 -66 17 -169 26 -230 19 -131 20 -280 4 -332
-14 -42 -46 -83 -67 -83 -7 0 -31 20 -54 45 -84 91 -210 146 -464 203 -97 22
-147 28 -195 25 -117 -9 -269 56 -524 224 -255 168 -461 331 -1081 858 -71 61
-139 117 -150 125 -11 8 -37 50 -59 93 -39 82 -152 257 -165 257 -4 0 -37 27
-74 60 -78 69 -114 90 -156 90 -37 0 -58 -20 -71 -72 -18 -67 11 -181 63 -250
72 -94 79 -168 16 -168 -17 0 -50 -5 -75 -11 -37 -10 -59 -9 -120 6 -59 14
-97 16 -177 11 -73 -5 -127 -2 -188 8 -80 15 -90 14 -151 -3 -80 -23 -106 -40
-153 -96 -22 -28 -59 -56 -100 -76 -88 -43 -116 -92 -101 -174 5 -27 16 -42
41 -56 41 -25 48 -51 35 -134 -8 -51 -7 -72 4 -98 23 -56 56 -66 366 -111 126
-18 185 -36 185 -56 0 -12 -20 -17 -93 -23 -153 -12 -272 -74 -272 -140 0 -55
35 -71 280 -135 208 -54 321 -74 545 -93 77 -7 145 -17 152 -23 15 -14 86
-230 123 -371 26 -103 36 -124 157 -325 102 -169 139 -222 174 -249 24 -18 47
-45 51 -60 10 -33 34 -51 70 -51 32 0 88 -25 88 -40 0 -14 55 -40 87 -40 38 0
55 -13 67 -51 8 -24 28 -45 70 -72 47 -31 63 -49 79 -88 12 -27 27 -49 33 -49
7 0 29 9 49 21 49 29 69 13 60 -48 -8 -58 0 -78 36 -94 28 -11 36 -10 74 11
44 24 75 22 75 -4 0 -9 -11 -23 -25 -32 -38 -25 -31 -54 31 -125 31 -35 82
-98 112 -139 31 -41 70 -88 87 -104 51 -48 167 -120 351 -218 121 -64 213
-122 297 -186 149 -114 250 -182 271 -182 18 0 36 -30 36 -59 0 -10 11 -28 25
-38 33 -24 47 -99 43 -235 l-3 -103 -145 -75 c-236 -121 -240 -125 -240 -229
0 -79 16 -116 74 -169 58 -53 191 -141 225 -148 48 -10 51 -13 51 -43 0 -16 5
-42 10 -57 9 -23 14 -26 41 -20 21 4 31 1 35 -9 8 -21 -22 -64 -52 -75 -14 -6
-40 -36 -62 -71 -51 -85 -189 -270 -307 -414 -55 -66 -144 -174 -198 -240 -55
-66 -123 -154 -153 -196 -29 -41 -101 -129 -160 -195 -165 -183 -404 -488
-392 -499 2 -2 25 10 51 27 26 17 50 28 54 25 15 -16 -227 -256 -359 -356 -31
-23 -73 -47 -93 -52 -39 -11 -125 -88 -125 -113 0 -9 22 -19 63 -29 l62 -15
-55 -2 c-78 -3 -106 -12 -102 -36 5 -41 -20 -93 -51 -103 -28 -10 -29 -12 -22
-58 4 -27 11 -55 16 -65 7 -13 -1 -21 -39 -40 l-47 -23 -1 -55 c0 -84 -1 -87
-41 -131 l-36 -40 32 -30 c42 -38 41 -87 -1 -107 -42 -20 -39 -72 4 -106 l33
-26 -32 -30 c-18 -17 -33 -35 -33 -40 0 -5 11 -30 25 -55 21 -40 24 -56 19
-104 -6 -54 -4 -58 35 -113 45 -63 50 -84 22 -93 -63 -20 -41 -66 45 -91 29
-8 57 -21 63 -27 5 -7 11 -40 13 -72 l3 -60 56 -30 c31 -16 81 -53 110 -81 93
-87 412 -290 679 -432 63 -33 174 -81 245 -105 72 -25 155 -56 185 -69 61 -27
120 -73 120 -92 0 -20 -31 -42 -84 -60 -52 -17 -86 -41 -86 -61 0 -31 42 -49
123 -55 80 -5 82 -6 79 -30 -1 -13 -19 -61 -38 -105 -60 -135 -58 -128 -43
-161 8 -17 31 -37 54 -47 22 -11 52 -30 67 -44 33 -31 119 -53 211 -53 75 0
127 -17 149 -49 23 -32 80 -51 156 -51 107 0 126 10 168 91 22 41 53 82 76
100 46 37 63 68 72 129 9 55 25 100 37 100 5 0 9 11 9 24 0 56 82 186 260 411
22 28 47 70 56 95 47 133 56 142 119 131 69 -13 102 -36 116 -83 12 -38 21
-47 73 -72 63 -32 48 -31 306 -23 47 2 55 0 52 -15 -1 -10 9 -55 23 -102 l25
-84 -15 -128 c-27 -226 -30 -403 -10 -557 11 -88 16 -171 13 -234 -5 -102 -18
-142 -58 -178 -17 -15 -20 -26 -15 -52 13 -70 -44 -226 -148 -403 -31 -52 -32
-60 -32 -160 0 -124 6 -135 103 -216 82 -67 162 -109 259 -136 67 -18 106 -21
273 -22 372 0 573 57 775 219 92 74 100 95 38 108 -44 8 -69 29 -58 47 4 7 27
20 51 30 31 14 45 27 50 45 15 60 -48 388 -82 426 -21 23 -10 56 47 147 98
155 307 611 367 802 47 150 56 205 56 361 l1 147 -27 26 c-44 39 -37 59 26 81
36 12 40 20 61 118 19 88 133 353 175 407 38 50 132 205 173 286 126 251 197
661 197 1147 0 396 -48 769 -140 1097 -67 235 -70 271 -70 680 0 388 14 849
30 1005 17 160 34 220 83 293 44 66 97 187 111 256 17 78 25 94 75 139 57 52
131 86 219 103 43 7 98 24 124 36 47 21 48 21 82 3 29 -16 41 -17 87 -7 74 14
157 47 205 79 23 16 77 52 120 81 44 30 120 73 169 97 87 42 132 56 280 90 39
8 81 24 95 34 23 17 25 25 26 105 l1 87 57 52 c31 29 56 59 56 67 0 47 25 94
71 138 28 26 80 83 117 127 102 124 131 153 222 217 109 78 232 186 445 388
94 90 233 219 310 289 206 185 308 285 295 289 -6 2 -26 -10 -46 -27 -24 -22
-45 -31 -69 -31 -19 0 -35 4 -35 9 0 15 80 82 116 97 18 8 50 14 70 14 30 0
45 8 80 44 24 24 44 48 44 53 0 5 -17 17 -37 27 -43 20 -116 76 -109 83 2 2
42 -3 88 -11 47 -9 88 -16 92 -16 4 0 5 15 2 33 -3 17 -8 64 -11 104 l-6 72
28 -10 c23 -7 45 -4 107 16 68 22 88 35 169 108 91 82 183 156 390 317 183
141 347 339 347 416 0 13 -12 32 -26 43 -57 45 -173 16 -290 -69 -37 -28 -73
-50 -80 -50 -41 0 8 72 154 225 203 213 210 243 89 356 l-49 47 7 64 c6 60 5
66 -19 95 -14 17 -42 38 -62 48 -34 16 -40 16 -98 0 -54 -15 -70 -16 -143 -5
-82 13 -84 13 -155 -15 -62 -24 -83 -39 -148 -108 -41 -44 -101 -97 -132 -118
-31 -21 -85 -70 -120 -109 -59 -67 -166 -140 -203 -140 -24 0 -44 53 -54 144
-15 131 -69 234 -137 262 -72 30 -104 -9 -135 -169 -29 -142 -24 -248 17 -427
15 -64 15 -65 -16 -150 l-31 -86 -62 13 c-34 7 -150 16 -259 19 l-196 7 -62
-124 c-72 -143 -138 -249 -176 -281 -43 -38 -48 -55 -25 -92 31 -49 28 -76 -8
-76 -16 0 -31 6 -35 15 -3 8 -16 15 -30 15 -31 0 -79 -55 -71 -80 8 -25 -2
-29 -95 -40 -64 -7 -88 -15 -111 -34 -19 -16 -48 -28 -79 -32 -94 -12 -141
-65 -106 -119 28 -43 28 -43 -77 -80 -32 -11 -52 -26 -61 -44 -9 -17 -43 -43
-93 -70 -44 -23 -105 -66 -137 -96 -67 -63 -100 -75 -213 -75 -133 0 -122 -27
45 -109 56 -28 102 -55 102 -60 0 -30 -86 -19 -181 23 -86 38 -186 54 -426 71
-229 16 -308 26 -401 50 -72 19 -68 20 -99 -11 -22 -22 -27 -24 -35 -11 -27
50 -78 69 -108 42 -11 -10 -20 -25 -20 -33 0 -12 -5 -11 -20 6 -23 24 -41 21
-109 -23 -62 -38 -90 -34 -144 24 -54 57 -64 96 -49 185 15 88 48 169 98 239
151 212 170 253 185 399 9 90 -2 318 -21 433 -31 189 -102 354 -248 580 -119
183 -438 441 -662 536 -72 31 -151 77 -230 135 -123 90 -167 104 -396 124
-165 15 -256 33 -302 62 -32 19 -52 23 -142 25 -58 1 -144 -4 -192 -12z m317
-216 c117 -117 282 -256 292 -245 3 2 0 21 -6 43 -11 38 -15 93 -7 93 21 0 46
-25 105 -104 38 -50 79 -100 91 -111 21 -19 22 -19 35 -1 8 10 16 37 20 59 16
109 12 109 67 6 52 -101 98 -156 118 -144 8 5 11 34 8 94 -3 80 -2 86 17 86
14 0 33 -22 67 -80 86 -148 129 -195 148 -165 6 8 8 25 5 38 -3 12 -8 43 -12
68 -5 42 -4 46 13 42 18 -3 41 -31 159 -194 61 -84 99 -111 171 -120 30 -3 65
-15 79 -26 51 -40 162 -275 198 -417 19 -78 21 -113 22 -386 0 -215 -4 -319
-14 -368 -7 -37 -17 -69 -21 -72 -4 -2 -19 26 -33 63 -23 61 -33 92 -51 175
-4 18 -13 27 -25 27 -24 0 -31 -19 -38 -103 -3 -37 -12 -75 -19 -85 -13 -16
-15 -16 -28 0 -7 10 -16 48 -19 85 -6 79 -14 103 -32 103 -20 0 -33 -22 -71
-112 -42 -100 -75 -137 -132 -145 -26 -4 -42 -2 -42 5 0 6 20 34 45 64 47 54
62 87 51 113 -8 22 -20 19 -68 -20 -60 -48 -90 -63 -137 -71 -69 -11 -64 15
18 102 147 154 150 214 9 154 -68 -29 -118 -38 -118 -22 0 5 27 34 61 66 33
32 58 63 56 69 -4 13 -49 13 -133 2 -100 -14 -147 39 -137 153 6 60 4 65 -25
95 -16 18 -37 48 -45 69 -13 31 -23 38 -73 55 -50 15 -61 24 -79 58 -18 35
-25 41 -63 46 -59 8 -67 18 -54 71 7 27 8 46 2 52 -6 6 -42 5 -98 -3 -48 -6
-95 -9 -105 -5 -26 10 -20 41 11 56 22 11 28 21 30 56 4 52 -9 54 -93 16 l-57
-26 -30 22 c-21 16 -55 26 -107 33 -42 5 -82 11 -89 13 -26 7 -24 36 6 73 17
21 28 41 25 45 -9 9 -68 7 -96 -3 -13 -5 -45 -28 -71 -50 -75 -65 -113 -51
-101 39 5 35 3 50 -5 50 -16 0 -67 -27 -133 -72 -101 -69 -244 -112 -281 -85
-19 14 -19 15 2 44 49 70 263 207 393 254 106 38 146 64 128 85 -16 20 -73 17
-159 -7 -125 -35 -340 -25 -340 16 0 29 74 38 362 42 l286 5 -99 95 c-90 87
-116 123 -89 123 23 0 85 -32 190 -100 159 -102 230 -131 230 -95 0 9 -40 55
-88 103 -109 107 -183 242 -134 242 4 0 66 -59 137 -131z m-677 -121 c31 -31
-15 -66 -63 -48 -43 16 -25 60 25 60 14 0 31 -5 38 -12z m-108 -291 c0 -49
-174 -127 -284 -127 -64 0 -190 30 -209 49 -23 23 13 35 135 42 137 9 246 25
268 39 23 15 90 12 90 -3z m6730 -73 c0 -27 -21 -57 -117 -163 -84 -93 -166
-194 -186 -228 -7 -12 306 -385 391 -467 l41 -39 28 18 c15 10 66 46 113 80
206 151 246 126 65 -41 -207 -189 -321 -274 -370 -274 -81 0 -422 264 -469
364 -28 60 -17 117 35 185 21 26 25 56 9 66 -17 10 -67 -23 -132 -88 -46 -46
-63 -58 -66 -45 -9 43 41 98 357 403 170 164 267 245 293 245 4 0 8 -7 8 -16z
m289 -66 c-7 -13 -41 -54 -76 -91 -36 -38 -73 -83 -83 -99 -23 -37 -52 -58
-154 -109 -91 -45 -136 -51 -136 -18 0 55 366 339 437 339 21 0 23 -2 12 -22z
m-1107 -242 c14 -84 2 -119 -39 -114 -43 5 -50 29 -30 105 30 115 51 118 69 9z
m1228 66 c0 -28 -157 -194 -269 -284 -55 -44 -80 -58 -100 -56 -45 5 -40 47
11 98 135 135 358 286 358 242z m-6575 -68 c35 -9 72 -25 82 -35 10 -11 27
-28 37 -39 11 -11 63 -36 115 -57 127 -48 203 -86 245 -123 19 -17 76 -59 127
-93 125 -84 134 -98 134 -201 0 -49 -5 -93 -13 -107 -7 -13 -38 -37 -68 -53
-76 -40 -107 -83 -112 -156 -4 -49 -1 -61 17 -79 30 -30 53 -27 145 24 46 25
90 45 99 45 33 0 40 -36 27 -151 -6 -60 -9 -117 -5 -128 7 -22 33 -31 91 -31
43 0 68 -17 56 -37 -4 -6 -29 -22 -57 -35 -63 -30 -73 -61 -23 -77 19 -6 50
-7 73 -2 95 18 125 -27 43 -67 -51 -24 -72 -50 -58 -72 8 -12 17 -12 62 4 73
25 113 54 137 97 26 46 27 95 1 137 -28 46 -25 52 20 52 86 0 101 -65 50 -213
-29 -81 -30 -89 -15 -116 18 -36 52 -61 81 -61 54 0 96 66 145 231 17 57 37
115 46 128 15 24 16 24 30 5 23 -30 13 -185 -16 -249 -24 -54 -89 -128 -133
-151 -14 -7 -68 -21 -119 -30 -50 -8 -104 -20 -118 -26 -14 -5 -70 -18 -123
-28 -105 -19 -148 -39 -148 -70 0 -16 7 -20 38 -20 21 0 64 5 95 10 41 8 62 8
78 0 l21 -12 -22 -23 c-23 -25 -63 -42 -176 -74 -86 -25 -109 -46 -69 -61 32
-12 68 -12 120 0 41 10 75 5 75 -10 0 -30 -75 -61 -198 -80 -79 -13 -126 -40
-105 -61 7 -7 49 -22 94 -33 45 -12 84 -26 86 -33 6 -18 -75 -36 -134 -29 -86
10 -108 -10 -48 -45 55 -33 42 -59 -28 -59 -18 0 -88 12 -157 25 -69 14 -160
28 -202 32 -42 3 -82 9 -89 13 -6 5 -12 25 -13 47 -1 34 -4 38 -30 41 -39 5
-49 -9 -52 -68 -3 -64 -29 -110 -79 -135 -34 -17 -60 -20 -175 -20 -124 0
-140 2 -202 28 -36 15 -82 27 -100 27 -53 0 -118 39 -155 94 -20 29 -49 100
-74 180 -23 72 -52 154 -64 181 -30 67 -34 88 -44 219 -10 136 1 277 24 313
24 36 34 20 45 -78 6 -46 17 -103 26 -126 13 -37 21 -44 65 -58 55 -19 80 -48
83 -97 1 -24 -5 -35 -23 -44 -34 -18 -41 -32 -41 -97 0 -73 19 -109 73 -141
117 -69 337 -74 408 -10 48 43 5 195 -71 256 -39 30 -132 58 -196 58 -77 0
-111 56 -49 80 15 6 77 10 138 10 126 0 150 9 161 60 6 31 -7 68 -28 82 -20
14 -44 8 -74 -17 -35 -29 -58 -31 -127 -9 -36 11 -70 13 -122 9 -65 -6 -72 -5
-77 13 -8 23 3 94 39 272 32 156 34 200 12 233 -19 30 -91 81 -125 90 -58 14
-159 -51 -190 -123 -9 -19 -18 -69 -21 -110 -5 -59 -10 -75 -23 -78 -26 -5
-42 59 -34 146 6 76 23 153 57 256 25 76 24 153 -2 279 -27 135 -25 363 4 395
25 27 97 42 205 42 89 1 320 24 330 34 12 13 226 5 287 -10z m-3892 -25 c83
-43 126 -106 95 -137 -30 -30 -76 5 -118 89 -31 59 -24 72 23 48z m-587 -324
c82 -8 232 -21 335 -30 181 -15 289 -34 316 -57 28 -23 -4 -29 -83 -18 -87 13
-147 5 -152 -22 -2 -11 16 -23 65 -42 82 -32 95 -41 116 -83 24 -45 21 -137
-7 -275 -45 -216 -86 -326 -129 -350 -29 -17 -430 -16 -537 1 -149 24 -105 50
104 62 83 5 158 11 167 14 13 4 19 23 24 68 7 60 23 588 18 596 -5 8 -167 42
-298 62 -77 11 -151 26 -165 33 -50 23 -21 50 56 55 12 0 88 -6 170 -14z m885
-11 c35 -20 54 -39 69 -69 27 -55 27 -147 0 -217 -27 -70 -25 -110 7 -204 47
-139 32 -300 -31 -324 -25 -9 -56 5 -56 25 0 8 15 31 33 51 28 32 32 45 32 92
0 45 -4 57 -24 73 -34 28 -47 11 -72 -87 -32 -129 -42 -139 -150 -151 -75 -8
-80 4 -41 89 33 72 54 140 77 249 19 88 39 123 66 116 49 -13 129 108 129 194
0 32 -6 54 -20 70 l-20 24 -19 -22 c-10 -12 -26 -52 -35 -90 -32 -132 -56
-162 -56 -70 0 90 38 277 56 277 3 0 28 -12 55 -26z m8938 -5 c47 -28 217
-196 209 -205 -11 -11 -44 7 -122 65 -79 59 -116 66 -116 23 0 -49 36 -89 115
-127 58 -29 111 -32 137 -8 17 15 21 15 51 1 19 -9 56 -35 83 -59 61 -53 169
-123 227 -148 25 -11 48 -24 51 -29 9 -15 -72 -81 -115 -93 -43 -13 -50 -10
-144 61 -36 28 -75 50 -85 50 -20 0 -36 -33 -24 -51 4 -7 3 -9 -3 -6 -6 4 -32
40 -59 82 -27 41 -52 75 -56 75 -3 0 -20 12 -37 28 -16 15 -61 54 -100 87
-102 87 -119 139 -77 239 17 42 20 43 65 15z m-3384 -20 c9 -28 -5 -194 -15
-183 -6 8 -20 58 -35 127 -8 40 4 77 25 77 10 0 22 -10 25 -21z m-6423 -158
c43 -5 85 -14 93 -21 14 -12 14 -15 -1 -31 -33 -36 -247 -80 -291 -60 -14 6
-73 18 -131 27 -110 17 -147 28 -137 44 11 17 89 33 200 40 155 10 180 10 267
1z m9176 -53 c2 -9 -16 -38 -39 -63 -36 -39 -44 -44 -52 -30 -21 37 28 119 68
113 11 -2 21 -11 23 -20z m-8021 -25 c5 -16 8 -56 8 -90 0 -72 -18 -100 -55
-88 -21 7 -22 11 -18 90 4 83 17 115 44 115 8 0 17 -12 21 -27z m8392 -3 c31
-10 95 -37 141 -59 46 -23 99 -44 119 -47 36 -7 91 -48 91 -69 0 -7 22 -43 48
-81 60 -84 85 -132 77 -144 -7 -12 -60 9 -127 50 -70 44 -74 43 -69 -14 3 -55
-5 -55 -49 -1 -46 57 -245 260 -257 263 -43 11 26 -152 77 -182 20 -11 28 -22
22 -28 -5 -5 -64 -14 -131 -21 -66 -6 -121 -15 -121 -19 0 -4 8 -8 18 -8 22 0
92 -57 92 -75 0 -7 -11 -16 -24 -19 -13 -3 -27 -13 -30 -22 -7 -17 2 -34 124
-232 35 -56 61 -105 58 -107 -2 -3 -59 62 -127 144 -148 183 -181 201 -181
100 0 -43 -3 -49 -21 -49 -28 0 -59 -18 -59 -34 0 -18 37 -49 99 -82 88 -47
171 -172 196 -294 7 -35 6 -35 -28 16 -70 102 -239 227 -282 210 -24 -9 -7
-32 100 -146 138 -146 195 -270 145 -320 -11 -11 -29 -20 -38 -18 -14 3 -16
13 -14 63 5 81 -7 106 -73 158 -73 57 -215 130 -245 125 -21 -3 -16 -11 58
-91 88 -94 104 -119 121 -182 6 -22 26 -67 46 -98 44 -75 57 -120 40 -143 -19
-26 -41 -11 -60 43 -36 102 -51 130 -99 181 -56 59 -96 87 -143 97 -50 10 -43
-18 24 -106 84 -110 137 -241 114 -278 -14 -21 -31 -3 -81 80 -50 84 -93 135
-131 155 -15 7 -30 14 -34 14 -19 0 5 -68 70 -193 71 -137 90 -197 66 -211
-14 -9 -64 54 -122 151 -91 156 -128 197 -159 178 -11 -7 1 -34 115 -273 42
-89 74 -169 71 -177 -7 -20 -55 -19 -78 2 -10 9 -18 28 -18 43 0 52 -110 253
-169 308 -26 24 -61 30 -61 9 0 -7 18 -42 39 -79 78 -133 109 -263 76 -314
-15 -24 -18 -25 -33 -11 -8 9 -19 43 -23 77 -5 33 -20 82 -33 108 -26 51 -86
112 -111 112 -24 0 -35 -62 -45 -265 -9 -196 -20 -276 -42 -302 -25 -31 -30 7
-27 248 l3 248 -160 163 c-168 172 -224 244 -224 289 0 105 378 379 667 482
112 40 185 81 247 138 75 68 112 123 152 227 42 106 78 163 148 232 63 62 127
99 174 100 18 0 59 -9 91 -20z m-9509 -163 c21 -7 36 -20 38 -31 8 -37 -24
-46 -162 -46 -187 0 -346 26 -346 55 0 9 15 17 38 20 20 4 42 8 47 10 28 9
354 3 385 -8z m3840 -146 c0 -24 -47 -71 -71 -71 -27 0 -24 36 6 65 29 30 65
33 65 6z m6306 -51 c56 0 82 -60 33 -75 -33 -11 -53 3 -82 56 -27 49 -27 50
-5 35 12 -9 37 -16 54 -16z m-8732 -203 c-9 -29 -39 -95 -65 -148 -47 -92 -60
-141 -40 -153 16 -10 70 44 121 119 58 86 78 107 92 99 22 -14 -3 -99 -63
-211 -49 -92 -59 -117 -49 -128 34 -40 84 -1 173 133 70 107 92 131 108 115
16 -16 -24 -126 -91 -244 -34 -61 -60 -118 -58 -127 2 -11 15 -18 35 -20 33
-3 66 23 161 131 19 20 38 35 43 31 13 -8 2 -46 -48 -162 -44 -104 -53 -161
-25 -170 24 -8 109 93 171 204 l61 109 0 -71 c0 -89 -26 -168 -91 -275 -55
-90 -69 -133 -47 -141 42 -16 112 55 174 179 25 51 50 93 55 93 29 0 0 -102
-75 -268 -45 -99 -54 -132 -38 -132 34 0 121 115 174 230 19 41 45 83 56 94
20 18 22 18 28 1 18 -46 -83 -237 -209 -398 -86 -108 -136 -156 -183 -172 -22
-7 -41 -21 -42 -30 -5 -23 77 -100 124 -115 35 -12 39 -11 56 10 10 12 18 36
18 52 0 17 14 57 32 89 45 86 218 282 234 267 11 -12 -61 -131 -110 -182 -50
-51 -60 -82 -36 -111 52 -63 162 84 271 362 l50 128 -7 -80 c-8 -108 -37 -209
-91 -328 -51 -112 -60 -164 -28 -159 45 8 99 83 135 188 37 105 50 176 60 321
10 141 26 215 45 215 22 -1 28 -78 16 -212 -15 -177 -44 -312 -86 -415 -40
-95 -45 -135 -17 -135 56 0 132 168 188 412 10 43 19 76 22 74 6 -7 -28 -348
-43 -421 -18 -87 -18 -96 -1 -89 24 9 63 96 118 264 l53 165 3 -65 c4 -81 -9
-154 -54 -292 -37 -118 -40 -138 -21 -138 36 0 98 113 148 273 l29 92 -5 -75
c-8 -124 -94 -405 -151 -492 -28 -44 -64 -54 -157 -44 -77 8 -327 73 -467 121
-127 44 -350 154 -427 212 -151 113 -448 403 -605 592 -57 69 -97 130 -140
216 -33 66 -63 125 -68 130 -4 6 -15 34 -24 64 -62 210 62 316 269 230 54 -23
82 -29 102 -24 45 11 117 97 174 208 28 56 57 108 63 116 19 25 19 -54 0 -112z
m1291 -466 c31 -15 89 -64 151 -125 79 -78 108 -116 131 -166 56 -120 58 -140
57 -570 0 -534 -12 -625 -97 -799 -52 -105 -108 -171 -146 -171 -15 0 -30 3
-34 6 -8 9 17 56 68 129 64 90 104 178 131 283 31 120 32 220 4 253 -17 21
-21 22 -30 9 -5 -8 -10 -40 -10 -70 0 -170 -104 -342 -270 -449 -183 -118
-350 -104 -495 44 -56 56 -138 191 -160 263 -15 51 28 18 97 -75 125 -169 184
-212 289 -213 74 0 175 50 265 133 205 188 316 492 316 862 0 248 -39 371
-152 479 -83 79 -180 123 -311 140 -98 13 -133 27 -113 45 16 16 47 20 154 18
89 -2 113 -6 155 -26z m3003 -102 c4 -30 -22 -46 -44 -28 -15 12 -19 41 -7 53
16 16 48 1 51 -25z m1152 -25 c0 -19 -4 -34 -10 -34 -5 0 -10 18 -10 41 0 24
4 38 10 34 6 -3 10 -22 10 -41z m-891 -78 l23 -24 -22 -7 c-27 -8 -56 16 -47
39 9 22 20 20 46 -8z m468 4 c15 -11 50 -27 80 -36 48 -14 56 -20 78 -64 69
-136 136 -537 136 -820 1 -184 -16 -269 -71 -360 -22 -36 -40 -71 -40 -77 0
-5 9 -18 20 -28 43 -39 21 -71 -61 -89 -36 -8 -79 -44 -79 -67 0 -21 18 -24
67 -10 24 7 35 6 44 -5 18 -22 -11 -181 -65 -353 -48 -152 -57 -217 -31 -227
22 -9 41 11 76 77 33 62 53 77 77 57 20 -17 11 -107 -27 -273 -47 -201 -90
-499 -121 -835 -6 -63 -15 -248 -20 -410 -5 -171 -16 -339 -25 -400 -44 -290
-141 -546 -293 -775 -32 -49 -130 -178 -216 -285 -264 -328 -306 -398 -392
-652 -82 -240 -93 -258 -254 -387 -141 -114 -195 -151 -219 -151 -12 0 -75
-24 -139 -54 -150 -69 -155 -70 -175 -48 -9 10 -50 81 -90 159 -84 159 -165
282 -282 428 -107 132 -164 214 -213 305 -92 171 -155 364 -192 590 -30 186
-53 298 -105 495 -77 296 -108 512 -109 765 -1 116 3 176 13 204 12 36 15 38
46 33 17 -3 58 -16 90 -29 48 -18 63 -30 79 -61 11 -21 46 -63 79 -94 79 -76
93 -61 38 42 -46 88 -57 132 -44 172 l10 28 19 -32 c10 -18 35 -60 54 -94 43
-75 156 -195 194 -205 35 -9 52 7 37 35 -7 11 -61 80 -122 153 -128 154 -147
184 -127 203 22 21 52 1 111 -73 62 -77 127 -138 203 -189 54 -36 117 -53 128
-34 14 21 -5 48 -67 98 -164 132 -367 334 -367 367 0 18 44 0 110 -45 148
-102 391 -203 598 -250 130 -29 297 -35 404 -15 187 35 588 197 588 238 0 11
-23 9 -200 -12 -103 -13 -371 -12 -488 1 -136 15 -227 34 -372 79 -154 49
-175 52 -175 25 0 -28 57 -57 215 -109 132 -44 180 -55 327 -77 80 -12 118
-32 93 -49 -22 -14 -183 -12 -275 4 -257 46 -507 139 -672 252 -37 25 -106 65
-155 90 -63 32 -92 52 -103 73 -16 33 -20 87 -6 95 5 3 43 -10 84 -29 91 -42
140 -45 162 -11 36 55 -30 88 -180 89 -126 1 -163 -12 -236 -79 -47 -43 -66
-54 -92 -54 -59 0 -79 36 -108 190 -7 36 -27 109 -46 163 -18 53 -33 107 -33
118 0 19 4 21 34 16 19 -3 66 -19 105 -37 39 -17 106 -40 149 -51 93 -24 244
-30 264 -11 11 11 10 16 -7 28 -21 16 -23 16 -133 33 -74 11 -171 51 -195 79
-10 13 -3 15 58 9 39 -3 126 -17 195 -31 68 -15 178 -33 245 -42 66 -8 158
-24 203 -35 85 -19 102 -18 102 6 0 17 -53 70 -101 101 -52 32 -222 104 -248
104 -28 0 -27 -6 9 -47 39 -44 39 -57 -2 -49 -41 8 -167 82 -175 103 -4 9 11
31 38 59 25 25 37 44 29 44 -27 0 -403 50 -421 55 -25 8 -24 11 12 102 50 126
72 234 71 353 0 168 -42 324 -159 590 -114 259 -173 402 -173 416 0 21 48 18
134 -10 170 -54 233 -131 78 -96 -30 7 -49 7 -63 -1 -19 -10 -20 -12 -4 -29 9
-10 43 -27 76 -39 63 -23 71 -34 39 -51 -27 -14 -25 -36 4 -55 13 -9 91 -39
173 -66 225 -76 268 -106 592 -413 206 -195 277 -225 506 -211 192 11 344 60
583 189 152 82 209 122 288 201 106 107 178 246 215 419 26 117 49 334 49 461
0 75 4 106 16 123 42 60 55 11 63 -227 8 -212 15 -251 50 -251 25 0 48 29 67
83 9 26 18 47 20 47 2 0 19 -31 39 -69 37 -75 51 -89 68 -72 18 18 -5 106 -60
228 -41 94 -47 116 -45 168 6 182 7 215 10 215 2 0 15 -9 29 -20z m-3162 -37
c10 -20 28 -109 41 -197 37 -247 81 -384 183 -561 115 -201 221 -562 221 -756
0 -102 -49 -239 -86 -239 -14 0 -19 14 -28 84 -6 47 -21 65 -38 48 -7 -7 -11
-42 -9 -95 1 -64 -2 -87 -13 -96 -20 -16 -36 -6 -36 23 0 37 -21 86 -36 86
-24 0 -28 -29 -15 -123 8 -57 10 -92 3 -99 -14 -14 -50 37 -57 81 -12 71 -15
81 -35 91 -16 9 -22 6 -35 -20 -8 -16 -22 -30 -30 -30 -17 0 -35 30 -35 59 0
28 -20 69 -36 75 -46 18 -68 -37 -62 -149 5 -71 11 -96 42 -155 54 -106 45
-128 -27 -69 -63 52 -82 99 -82 204 0 76 5 99 27 147 15 32 38 73 52 91 57 74
60 95 60 429 1 168 4 310 8 314 13 12 57 -98 78 -192 10 -49 24 -142 31 -206
14 -144 30 -230 46 -235 33 -11 56 189 41 360 -7 81 -7 122 0 129 26 26 63
-86 82 -249 20 -166 59 -246 82 -168 12 39 2 183 -18 265 -25 101 -93 234
-182 355 -94 126 -149 232 -188 360 -25 82 -28 105 -28 250 -1 135 2 165 17
193 23 42 41 41 62 -5z m2440 13 c11 -8 16 -19 12 -30 -8 -20 -75 -22 -102 -2
-16 12 -17 16 -6 30 16 20 70 21 96 2z m2011 -70 c257 -87 331 -159 389 -378
51 -196 115 -650 115 -818 0 -132 -17 -176 -82 -214 -72 -42 -134 -30 -163 29
-20 44 -19 71 8 168 20 74 22 104 22 317 -1 270 -15 377 -68 500 -63 146 -164
270 -262 321 -55 29 -82 72 -55 89 20 13 17 13 96 -14z m-1693 -33 c11 -6 8
-344 -3 -447 -6 -49 -21 -115 -33 -145 -30 -73 -131 -235 -179 -287 -90 -97
-331 -241 -501 -297 -171 -58 -413 -72 -508 -30 -47 21 -129 107 -229 238 -70
92 -98 151 -81 168 10 10 21 3 54 -33 23 -26 62 -74 86 -109 84 -118 109 -98
41 32 -22 41 -40 83 -40 91 0 59 140 -58 160 -134 12 -44 60 -100 86 -100 35
0 6 72 -62 153 -13 16 -24 35 -24 43 0 38 73 -2 176 -97 53 -48 103 -74 116
-61 13 13 -1 38 -62 108 -53 61 -68 90 -52 106 18 18 72 -3 138 -54 75 -57
129 -83 139 -67 4 6 -13 29 -37 51 -54 52 -78 87 -78 116 0 39 35 30 155 -43
22 -14 54 -25 72 -25 63 0 52 38 -23 79 -26 14 -55 38 -64 53 -13 25 -13 29 1
44 15 14 23 14 98 -10 102 -32 161 -35 161 -7 0 23 -12 32 -54 41 -64 13 -26
79 45 80 15 0 57 -9 93 -20 37 -12 71 -18 76 -15 23 14 9 56 -31 92 -56 53
-64 70 -39 83 16 8 40 6 105 -11 90 -23 115 -21 115 9 0 24 -35 56 -83 76 -76
31 -53 76 39 76 29 0 56 5 59 10 4 6 -5 26 -19 45 -44 58 -35 74 47 84 28 3
52 12 55 19 2 8 -17 33 -42 56 -25 24 -46 47 -46 51 0 7 159 -3 173 -12z m975
-13 c23 -16 81 -83 129 -147 180 -245 199 -268 217 -271 31 -6 16 98 -29 198
-46 101 -57 138 -44 146 22 13 174 -184 254 -329 l40 -72 -1 -130 c-1 -98 -7
-154 -24 -225 -66 -275 -203 -560 -271 -560 -29 0 -31 15 -8 92 12 42 23 117
26 178 5 102 4 107 -26 170 -17 36 -31 73 -31 83 0 25 -24 68 -52 94 -30 29
-146 76 -166 68 -24 -9 -10 -133 33 -275 60 -200 60 -359 0 -488 -26 -55 -125
-162 -150 -162 -8 0 -23 12 -32 27 -15 23 -18 49 -18 163 1 77 6 152 13 175
26 84 37 417 23 722 -14 320 -29 452 -58 492 -32 44 -34 49 -17 65 11 11 35
16 83 16 60 0 73 -4 109 -30z m499 -20 c110 -63 198 -180 243 -325 17 -53 24
-104 28 -209 4 -133 4 -140 -17 -155 -27 -21 -38 -85 -45 -282 -10 -262 -34
-396 -84 -479 -21 -34 -34 -45 -52 -45 -35 0 -36 23 -1 109 36 89 55 192 76
411 9 88 23 221 31 295 25 213 27 262 15 306 -17 63 -127 220 -213 306 -44 43
-76 83 -73 88 10 17 38 11 92 -20z m-1839 8 c7 -7 12 -24 12 -38 0 -47 -37
-65 -72 -33 -23 21 -23 38 2 63 23 23 41 25 58 8z m-2128 -57 c14 -10 26 -28
28 -40 3 -17 -2 -21 -25 -21 -33 0 -103 44 -103 65 0 29 56 27 100 -4z m2030
-86 c17 -21 5 -45 -23 -45 -27 0 -62 33 -52 49 9 16 61 13 75 -4z m-1907 -103
c18 -10 31 -22 30 -28 -4 -25 -163 -29 -202 -5 -19 12 -7 39 21 51 32 14 114
4 151 -18z m1825 -28 c17 -12 22 -24 20 -47 -4 -42 -24 -41 -60 5 -43 52 -15
81 40 42z m-603 -67 c10 -8 15 -19 11 -25 -20 -33 -186 -44 -186 -12 0 6 49
30 90 44 29 9 66 6 85 -7z m463 -33 c25 -17 32 -84 9 -84 -25 0 -87 51 -87 72
0 7 33 25 50 27 3 1 16 -6 28 -15z m-176 -111 c29 -26 22 -43 -16 -43 -38 0
-60 19 -50 44 8 21 42 21 66 -1z m-107 -43 c0 -29 -29 -50 -46 -33 -9 9 -8 18
5 38 20 31 41 28 41 -5z m3257 -60 c-3 -22 -7 -28 -13 -19 -11 17 -12 93 -2
103 11 11 21 -45 15 -84z m-3832 19 c0 -24 -27 -36 -48 -22 -23 14 -25 29 -7
47 21 20 55 5 55 -25z m-459 -61 c33 -63 19 -88 -27 -50 -32 25 -44 55 -44
104 l1 43 25 -30 c14 -16 34 -47 45 -67z m657 31 c4 -30 -22 -46 -44 -28 -15
12 -19 41 -7 53 16 16 48 1 51 -25z m202 16 c6 -8 9 -23 5 -36 l-7 -21 -25 25
c-25 25 -24 47 1 47 8 0 19 -7 26 -15z m3029 -170 c0 -141 -20 -227 -46 -201
-14 13 -16 166 -3 230 26 135 50 121 49 -29z m-73 -431 c10 -40 -2 -154 -22
-203 -14 -36 -19 -40 -27 -26 -13 23 -4 204 12 233 16 29 29 28 37 -4z m-4816
-250 c0 -42 -65 -134 -95 -134 -18 0 -20 41 -4 73 31 59 99 101 99 61z m415
-443 c54 -24 72 -46 54 -67 -20 -24 -76 -11 -116 28 -18 17 -33 38 -33 45 0
19 48 16 95 -6z m-62 -357 c42 -43 117 -185 145 -274 31 -98 76 -380 62 -394
-17 -17 -43 6 -57 53 -6 23 -21 104 -32 181 -22 155 -55 242 -128 341 -48 65
-74 114 -66 123 15 15 43 4 76 -30z m-359 -256 c8 -14 7 -21 -6 -34 -30 -30
-75 9 -48 42 16 18 39 15 54 -8z m167 -146 c24 -16 50 -36 58 -45 12 -15 10
-17 -28 -17 -76 0 -132 36 -117 75 8 23 37 18 87 -13z m823 12 c8 -21 -11 -44
-35 -44 -23 0 -24 18 -2 42 20 22 29 23 37 2z m-944 -124 c113 -27 180 -50
180 -61 0 -15 -106 -10 -249 11 -149 22 -202 45 -173 74 11 12 146 -2 242 -24z
m431 -240 c26 -14 24 -24 -16 -102 -45 -88 -116 -193 -234 -348 -121 -158
-210 -305 -255 -423 -50 -131 -59 -172 -60 -263 0 -68 4 -90 25 -130 14 -27
37 -56 52 -64 48 -27 52 -9 49 181 -2 184 -3 183 59 273 16 25 36 65 42 88 10
33 18 44 36 46 22 3 23 1 19 -35 -3 -21 -17 -83 -31 -138 -33 -128 -41 -194
-28 -228 13 -34 39 -35 51 -1 6 15 33 117 61 228 57 228 101 372 132 431 l22
40 3 -53 c2 -29 -6 -106 -17 -171 -23 -131 -27 -211 -10 -211 18 0 49 85 90
248 22 86 49 186 61 222 19 59 22 62 31 40 6 -15 13 -265 17 -610 5 -322 13
-639 19 -705 25 -266 58 -441 100 -524 33 -63 52 -205 76 -551 26 -380 50
-546 109 -761 50 -181 94 -265 134 -257 14 3 18 18 20 76 2 40 7 72 13 72 6 0
26 -33 45 -74 19 -41 39 -78 46 -82 20 -13 1 151 -37 311 -105 438 -135 589
-156 790 -15 146 0 326 25 286 4 -6 21 -116 37 -244 47 -366 101 -606 160
-704 11 -17 33 -36 51 -42 27 -10 30 -14 24 -41 -6 -35 8 -46 47 -36 33 8 106
85 147 154 106 179 146 222 164 176 10 -26 -3 -62 -74 -214 -38 -80 -75 -169
-84 -198 l-15 -53 49 41 c28 23 53 46 56 52 8 13 85 68 96 68 20 0 5 -33 -35
-78 -46 -52 -79 -103 -170 -268 -31 -55 -72 -117 -91 -138 -35 -37 -42 -58
-30 -90 10 -26 27 -19 76 32 62 64 150 185 237 328 40 65 91 140 113 166 29
36 41 61 48 102 12 72 46 136 73 136 41 0 -71 -251 -224 -502 -97 -160 -153
-271 -146 -290 15 -46 229 280 428 652 56 104 114 203 131 222 l29 33 -6 -36
c-6 -42 -58 -173 -120 -306 -24 -51 -106 -198 -183 -326 -147 -245 -222 -384
-222 -411 0 -38 41 -14 102 60 217 264 442 641 508 849 42 133 50 151 88 188
60 59 232 156 232 132 0 -8 -218 -438 -335 -660 -123 -235 -144 -301 -81 -260
37 25 127 147 186 255 92 165 198 311 208 282 6 -18 -39 -109 -167 -336 -106
-190 -137 -259 -125 -278 10 -15 51 -8 85 15 24 16 38 36 48 67 7 25 39 82 70
128 114 170 174 272 265 452 160 316 178 374 250 805 63 374 94 452 258 647
224 265 246 303 283 482 24 116 38 156 55 156 19 0 20 -43 4 -126 -15 -78 -16
-103 -5 -228 14 -168 45 -328 72 -374 28 -48 42 -161 35 -277 -3 -55 -8 -110
-12 -123 -16 -56 -52 17 -53 108 -2 115 -35 168 -68 107 -16 -29 -19 -88 -24
-677 -4 -388 -10 -660 -17 -682 -26 -98 -113 -190 -287 -307 -106 -70 -587
-306 -685 -335 -45 -14 -81 -16 -205 -10 -176 8 -191 5 -360 -73 -66 -31 -156
-68 -200 -83 -93 -32 -136 -52 -154 -74 -16 -19 -63 -21 -94 -4 -12 6 -43 30
-68 52 -83 74 -395 244 -528 287 -82 26 -91 35 -98 90 -8 62 -37 115 -98 175
-130 130 -337 226 -590 274 -138 26 -189 44 -203 73 -6 12 -16 67 -22 122 -6
55 -34 222 -61 370 -69 375 -76 468 -60 762 21 404 53 721 92 905 49 232 -10
225 -252 -34 -174 -186 -219 -231 -226 -225 -11 11 183 337 328 552 65 97 137
183 280 335 243 259 322 353 426 512 71 108 102 146 121 148 2 0 12 -5 23 -10z
m210 -982 c29 -112 9 -411 -23 -354 -12 21 -24 342 -14 379 10 41 23 32 37
-25z m2964 -451 c16 -40 39 -168 57 -327 15 -128 14 -1309 -1 -1499 -10 -123
-16 -131 -104 -131 l-59 0 7 108 c24 403 36 513 66 600 42 123 49 679 14 1076
-18 197 -12 249 20 173z m-4475 -33 c0 -22 -67 -84 -91 -84 -29 0 -23 18 20
61 40 41 71 50 71 23z m391 -143 c9 -45 -5 -151 -37 -274 -54 -206 -58 -235
-57 -412 0 -182 29 -452 79 -723 14 -75 28 -158 31 -184 5 -45 4 -48 -28 -67
-81 -48 -75 -66 18 -56 59 6 64 5 61 -11 -2 -10 -21 -31 -43 -46 -102 -71
-264 -96 -378 -59 -38 13 -75 19 -90 16 -14 -4 -49 -34 -79 -68 -65 -74 -127
-110 -234 -137 -124 -31 -177 -27 -253 18 -88 51 -154 113 -182 169 -22 44
-24 60 -24 198 0 173 12 224 90 384 77 158 160 273 386 536 322 375 688 759
717 753 9 -2 19 -18 23 -37z m-481 -65 c0 -23 -50 -76 -71 -76 -29 0 -25 44 7
69 31 24 64 28 64 7z m1799 -418 c1 -20 -3 -40 -9 -43 -6 -4 -10 17 -9 57 0
68 17 56 18 -14z m-2125 -50 c-35 -71 -96 -111 -110 -73 -8 20 19 55 64 82 54
33 66 30 46 -9z m2126 -195 c0 -17 -4 -35 -10 -38 -6 -4 -10 14 -10 47 0 38 3
49 10 38 5 -8 10 -29 10 -47z m1894 -85 c-23 -128 -149 -591 -194 -710 -35
-95 -130 -222 -130 -175 0 12 197 597 252 747 58 159 85 210 72 138z m-1580
-217 c17 -45 56 -226 56 -264 0 -30 -14 -42 -28 -24 -6 6 -27 56 -48 111 -42
110 -58 109 -43 -2 20 -144 106 -432 130 -432 12 0 44 64 62 125 25 85 56 155
88 202 28 40 33 43 47 30 8 -9 17 -38 20 -66 5 -61 -25 -131 -118 -275 -80
-124 -83 -126 -121 -90 -122 117 -199 606 -111 707 25 28 48 21 66 -22z m160
-93 c14 -22 -3 -72 -27 -76 -26 -5 -43 41 -28 74 12 28 37 29 55 2z m-379
-591 c15 -45 28 -111 31 -147 l4 -65 -19 41 c-10 22 -28 78 -40 124 -39 154
-21 189 24 47z m711 -8 c3 -6 -5 -22 -19 -36 l-25 -25 -7 21 c-11 36 32 70 51
40z m-2006 -240 c0 -17 -51 -79 -66 -79 -16 0 -2 44 23 72 18 20 43 24 43 7z
m-278 -86 c-16 -28 -234 -235 -270 -256 -59 -34 -34 4 76 113 137 137 225 202
194 143z m-292 -10 c0 -58 -152 -160 -295 -197 -96 -26 -172 -21 -242 14 -33
17 -68 39 -78 50 -35 39 -10 45 193 46 207 0 210 1 337 78 72 43 85 45 85 9z
m720 -14 c0 -13 -31 -54 -82 -105 -45 -46 -83 -82 -85 -80 -6 6 78 144 107
176 33 35 60 39 60 9z m326 -24 c8 -20 -11 -64 -52 -122 l-34 -48 0 53 c0 56
19 105 47 121 25 14 33 13 39 -4z m-166 -19 c0 -28 -50 -86 -74 -86 -20 0 -20
13 0 53 24 46 34 57 55 57 13 0 19 -7 19 -24z m310 -26 c0 -41 -100 -197 -166
-260 -34 -33 -36 -34 -29 -10 8 30 98 199 133 253 27 41 62 50 62 17z m3184
-58 c-1 -32 -9 -52 -33 -82 -34 -43 -56 -89 -90 -191 -19 -59 -25 -67 -56 -76
-47 -15 -46 -7 11 147 55 150 77 195 112 227 38 35 57 27 56 -25z m-3064 4 c0
-26 -57 -117 -77 -124 -19 -5 -16 42 3 81 34 66 74 90 74 43z m2790 -233 c-28
-59 -73 -145 -101 -191 -97 -161 -103 -202 -36 -266 23 -23 53 -49 66 -57 l25
-16 -72 -214 c-39 -118 -81 -254 -93 -304 -23 -100 -112 -284 -241 -496 -109
-180 -123 -194 -216 -216 -111 -25 -397 -26 -463 0 -26 10 -54 26 -63 36 -15
17 -15 19 0 32 12 10 40 13 103 10 181 -8 205 -7 209 9 4 23 -32 40 -110 50
-89 11 -122 33 -126 85 -4 45 14 92 37 99 9 3 70 14 136 26 114 20 165 39 165
60 0 17 -47 22 -182 18 -118 -3 -133 -1 -136 14 -4 21 51 38 123 38 59 0 160
24 194 46 21 15 22 17 8 32 -14 13 -27 14 -102 3 -103 -14 -195 -1 -195 28 0
12 21 16 178 40 133 21 197 42 189 64 -3 9 -37 11 -123 8 -92 -2 -128 0 -157
12 -37 16 -56 41 -42 55 3 4 76 9 160 12 130 5 156 8 174 24 28 25 37 74 18
94 -14 13 -22 13 -74 -1 -129 -36 -323 -46 -323 -16 0 18 82 46 195 69 121 23
192 50 201 75 13 34 -11 38 -123 21 -230 -34 -297 -30 -244 14 13 11 33 22 45
24 11 2 50 9 86 16 82 14 253 97 259 124 3 21 24 21 -271 0 -159 -12 -158 14
1 46 113 23 181 51 181 76 0 13 -11 14 -68 9 -53 -6 -70 -4 -80 7 -20 25 14
45 123 74 134 35 194 64 365 174 307 198 445 281 448 271 2 -6 -19 -59 -48
-118z m-4164 85 c29 -47 -261 -139 -304 -96 -28 28 -3 42 107 63 43 9 97 22
118 30 48 17 70 18 79 3z m784 -7 c0 -22 -57 -75 -141 -131 -89 -59 -129 -73
-129 -46 0 18 18 32 55 40 32 8 70 34 147 103 48 42 68 52 68 34z m640 -57 c0
-67 -107 -217 -229 -321 -158 -135 -271 -197 -271 -150 0 16 78 91 155 147 76
56 170 150 225 226 49 67 100 124 112 124 4 0 8 -12 8 -26z m-1020 -53 c0 -24
-202 -128 -266 -137 l-39 -5 25 21 c26 23 187 107 230 121 35 10 50 10 50 0z
m30 -146 c-15 -18 -82 -55 -100 -55 -35 0 28 66 80 83 23 7 35 -10 20 -28z
m240 -3 c0 -20 -152 -106 -199 -113 -42 -7 -34 18 14 47 52 30 153 73 173 74
6 0 12 -4 12 -8z m166 -163 c7 -12 -54 -79 -73 -79 -31 0 -8 57 32 78 26 14
32 15 41 1z m822 -61 c4 -33 -21 -39 -38 -9 -16 30 -12 43 13 39 16 -2 23 -11
25 -30z m-152 -275 c15 -60 -48 -255 -104 -323 -45 -53 -144 -59 -170 -10 -15
30 -11 175 6 192 7 7 20 -9 45 -58 37 -73 69 -110 86 -99 16 9 14 35 -8 117
-11 40 -22 98 -26 128 l-6 55 33 -54 c60 -97 85 -92 107 19 13 64 26 76 37 33z
m1395 -3 c26 -15 24 -38 -6 -52 -48 -22 -102 25 -57 51 22 13 39 13 63 1z
m-2011 -86 c10 -11 11 -23 4 -42 -13 -36 -38 -35 -42 1 -6 52 13 72 38 41z
m226 8 c40 -26 46 -132 8 -132 -19 0 -34 42 -34 96 0 44 5 50 26 36z m-96 -73
c0 -54 -16 -85 -36 -68 -18 15 -18 52 1 90 20 38 35 29 35 -22z m1860 6 c19
-22 -5 -45 -47 -45 -21 0 -36 6 -39 15 -11 28 4 45 39 45 19 0 40 -7 47 -15z
m-2080 -155 c0 -62 -48 -117 -77 -88 -19 20 28 118 57 118 16 0 20 -6 20 -30z
m2074 20 c30 -11 52 -48 38 -62 -14 -14 -112 19 -112 37 0 13 26 34 42 35 4 0
18 -4 32 -10z m-1936 -102 c20 -20 14 -56 -14 -75 -49 -32 -87 25 -43 66 26
24 40 26 57 9z m1932 -78 c19 -9 34 -21 33 -26 -2 -5 -27 -10 -56 -12 -42 -2
-59 1 -78 18 -23 19 -24 20 -5 35 22 16 52 12 106 -15z m-1572 -11 c28 -6 52
-14 52 -19 0 -13 -63 -49 -98 -56 -22 -5 -41 0 -67 16 -41 25 -63 58 -43 64
43 14 58 13 156 -5z m1550 -125 c4 -25 -20 -47 -42 -38 -16 6 -22 45 -9 58 14
14 48 1 51 -20z m94 -650 c35 -24 48 -27 200 -35 249 -14 429 -59 493 -123 29
-29 32 -66 7 -89 -16 -15 -21 -15 -57 8 -22 13 -48 25 -57 25 -28 0 -22 -41
12 -86 32 -43 40 -102 18 -149 -15 -34 -22 -32 -43 16 -39 85 -75 69 -75 -32
0 -128 -40 -162 -70 -59 -12 41 -23 59 -44 70 -26 14 -28 14 -47 -9 -10 -13
-19 -36 -19 -52 0 -40 -20 -79 -41 -79 -14 0 -19 11 -24 48 -10 77 -15 92 -35
112 -41 41 -87 -13 -100 -115 -9 -76 -22 -95 -60 -95 -43 0 -68 41 -84 141 -4
20 -15 44 -25 53 -29 27 -95 32 -127 11 -23 -15 -26 -21 -20 -56 4 -22 2 -48
-4 -58 -20 -38 -130 -38 -150 0 -18 33 23 317 55 379 19 37 25 37 58 0 48 -53
72 -39 79 45 3 29 4 30 58 31 100 1 102 7 28 76 l-52 48 44 0 c31 0 55 -8 82
-26z"/>
<path d="M10871 11501 c-6 -11 -11 -50 -11 -88 0 -76 19 -125 60 -155 76 -56
89 67 22 202 -30 59 -54 73 -71 41z"/>
<path d="M4495 11221 c-48 -22 -74 -49 -77 -82 -3 -22 1 -24 46 -27 28 -2 65
4 90 13 45 18 96 61 96 82 0 35 -91 44 -155 14z"/>
<path d="M5437 11086 c-11 -28 4 -47 32 -44 20 2 26 8 26 28 0 20 -6 26 -26
28 -17 2 -29 -3 -32 -12z"/>
<path d="M4841 10961 c-19 -3 -38 -13 -44 -22 -16 -25 1 -69 33 -87 44 -25 53
-56 40 -137 -14 -89 -5 -138 32 -181 38 -43 73 -44 160 -4 41 19 93 34 148 41
149 18 152 19 187 54 54 54 41 123 -32 179 -117 90 -408 177 -524 157z m381
-187 c67 -16 83 -30 71 -60 -4 -12 -14 -14 -47 -8 -77 12 -134 53 -109 77 9 9
9 9 85 -9z"/>
<path d="M6105 10231 c-48 -12 -90 -35 -90 -50 0 -26 50 -34 107 -17 55 16
103 50 93 67 -7 10 -66 10 -110 0z"/>
<path d="M5368 9729 c-16 -6 -28 -17 -28 -24 0 -15 132 -85 160 -85 47 0 50
66 5 96 -31 20 -101 27 -137 13z"/>
<path d="M4593 9693 c-22 -8 -14 -32 15 -47 36 -18 166 -38 200 -30 40 10 53
23 43 43 -14 25 -215 52 -258 34z"/>
<path d="M4886 9548 c-24 -20 -25 -25 -13 -42 11 -16 21 -18 60 -12 46 7 110
42 111 61 1 6 -29 11 -65 13 -58 2 -71 0 -93 -20z"/>
<path d="M995 11189 c-16 -26 31 -171 72 -219 42 -51 83 -35 83 32 0 53 -21
99 -71 152 -40 45 -71 57 -84 35z"/>
<path d="M4483 8984 c-15 -40 116 -100 248 -111 123 -11 90 35 -63 85 -129 42
-176 49 -185 26z"/>
<path d="M4570 8810 c0 -16 58 -47 148 -80 118 -43 152 -38 131 16 -8 24 -65
46 -163 63 -75 14 -116 14 -116 1z"/>
<path d="M4580 8675 c0 -24 72 -70 171 -110 105 -41 134 -42 134 -5 0 19 -12
32 -52 56 -97 58 -253 94 -253 59z"/>
<path d="M4626 8531 c-10 -16 44 -59 129 -102 91 -46 128 -48 133 -8 3 24 -4
28 -105 67 -134 51 -150 55 -157 43z"/>
<path d="M4661 8381 c-28 -18 15 -59 112 -106 110 -53 141 -59 145 -28 7 46
-214 162 -257 134z"/>
<path d="M4594 8227 c-12 -31 20 -53 140 -93 41 -14 83 -37 102 -55 44 -42 78
-38 82 11 2 28 -3 41 -26 63 -57 54 -284 110 -298 74z"/>
<path d="M4568 8069 c-50 -29 5 -65 121 -79 88 -11 154 -2 159 22 8 43 -224
90 -280 57z"/>
<path d="M5276 7721 c-9 -13 47 -92 98 -139 69 -64 104 -75 221 -75 194 1 207
37 35 93 -63 21 -157 58 -209 84 -91 44 -134 55 -145 37z"/>
<path d="M7016 7613 c-45 -71 -94 -188 -106 -251 -24 -126 -170 -407 -315
-602 -94 -127 -105 -145 -105 -174 0 -60 75 -22 187 96 122 130 197 248 273
431 37 88 78 146 91 126 4 -7 5 -43 2 -81 -7 -77 5 -105 38 -88 27 15 38 67
50 242 17 238 -4 358 -62 358 -10 0 -32 -23 -53 -57z"/>
<path d="M6657 7614 c-88 -28 -150 -74 -130 -95 18 -18 130 -15 191 5 54 18
105 67 100 95 -5 26 -74 24 -161 -5z"/>
<path d="M4440 7450 c-38 -26 94 -81 242 -101 99 -14 283 -8 300 9 24 24 -12
41 -112 52 -52 5 -157 19 -233 30 -157 23 -176 24 -197 10z"/>
<path d="M6752 7414 c-71 -31 -210 -64 -322 -77 -66 -8 -127 -20 -135 -27 -37
-31 54 -70 164 -70 26 0 72 8 102 19 69 23 194 86 237 118 59 45 29 70 -46 37z"/>
<path d="M6620 7169 c-51 -21 -130 -30 -325 -39 -202 -9 -245 -15 -245 -31 0
-24 64 -32 250 -33 263 0 385 24 407 80 11 30 -37 43 -87 23z"/>
<path d="M6445 6980 c-27 -5 -140 -11 -250 -14 -269 -9 -325 -14 -325 -31 0
-23 65 -30 260 -28 254 2 435 30 448 71 4 14 -49 14 -133 2z"/>
<path d="M4534 6476 c-14 -56 62 -167 155 -227 51 -33 81 -37 81 -11 0 30 -72
142 -131 203 -62 64 -95 75 -105 35z"/>
<path d="M4555 6200 c-12 -19 17 -92 52 -131 42 -47 132 -95 250 -134 93 -30
127 -30 131 1 4 31 -47 70 -126 94 -37 11 -86 35 -109 53 -23 17 -70 53 -104
80 -61 47 -83 56 -94 37z"/>
<path d="M6719 6132 c-39 -20 -55 -35 -57 -51 -4 -23 -2 -24 55 -17 32 3 72 9
88 12 l30 6 -3 -54 c-18 -362 -46 -656 -68 -737 -5 -17 -3 -22 6 -19 56 18
121 239 151 513 19 181 -3 339 -52 365 -33 18 -95 11 -150 -18z"/>
<path d="M4573 5938 c32 -43 37 -60 47 -146 6 -52 15 -84 33 -110 17 -24 28
-58 32 -97 4 -33 22 -157 40 -275 19 -118 39 -251 45 -295 35 -236 114 -401
309 -645 161 -201 301 -414 346 -525 47 -115 51 -117 137 -85 65 24 108 63
108 96 0 14 10 30 26 41 23 15 25 21 20 55 l-6 38 57 -1 c32 0 80 -4 106 -8
27 -4 59 -6 72 -3 54 10 32 92 -25 92 -83 0 -180 41 -180 76 0 12 19 13 113 8
89 -5 124 -3 168 10 66 19 87 37 64 56 -12 10 -25 10 -60 1 -34 -8 -69 -9
-133 -1 -110 14 -178 45 -211 98 -31 51 -97 95 -212 141 -116 47 -168 73 -152
78 11 4 287 -57 350 -78 41 -13 73 -53 73 -90 0 -40 33 -59 100 -59 104 0 285
21 308 36 55 36 10 55 -159 64 -75 5 -148 14 -160 21 l-23 12 25 12 c13 7 60
18 104 24 186 27 222 34 254 50 83 39 37 52 -148 40 -289 -18 -465 -9 -626 32
-153 39 -435 169 -435 201 0 16 71 2 170 -33 261 -94 310 -109 400 -120 115
-14 342 -6 458 16 173 33 253 69 273 123 9 22 13 24 52 19 59 -8 100 15 164
92 92 112 205 323 219 410 l7 41 -33 0 c-18 0 -83 -10 -144 -21 -98 -19 -134
-21 -331 -16 -171 4 -241 10 -315 26 -52 11 -101 21 -108 21 -22 0 -9 -41 18
-61 61 -45 253 -92 446 -109 136 -12 197 -26 191 -43 -5 -17 -167 -21 -307 -7
-180 18 -275 37 -406 82 -67 23 -129 38 -138 35 -42 -16 -31 -78 18 -101 18
-8 116 -29 217 -45 189 -31 249 -46 249 -62 0 -15 -18 -18 -149 -26 -133 -9
-160 -21 -94 -45 54 -19 430 -18 495 1 26 7 53 20 59 27 14 17 45 18 52 2 7
-20 -8 -51 -43 -83 -34 -33 -64 -38 -280 -51 -155 -9 -286 20 -500 112 -67 29
-180 45 -180 26 0 -18 71 -70 151 -112 122 -63 248 -101 374 -112 68 -5 115
-14 124 -23 25 -25 -53 -37 -275 -42 -242 -6 -319 4 -451 61 -175 75 -367 183
-415 233 -28 29 -30 73 -4 73 7 0 55 -29 107 -65 194 -135 539 -277 539 -222
0 24 -77 84 -130 102 -81 27 -303 166 -396 247 -19 17 -34 39 -34 50 0 18 4
20 41 14 l41 -7 -7 41 c-6 37 -5 40 17 40 13 0 51 -16 84 -36 82 -51 134 -74
167 -74 15 0 27 3 27 6 0 20 -30 49 -106 100 -91 61 -125 97 -106 116 19 19
148 -31 198 -77 37 -34 114 -33 114 1 0 22 -83 70 -386 222 -270 136 -345 182
-297 182 31 0 166 -47 276 -96 101 -46 135 -52 155 -32 27 27 12 46 -65 86
-161 83 -601 282 -625 282 -5 0 2 -15 15 -32z m473 -553 c32 -21 30 -53 -5
-103 -52 -71 -91 -65 -150 25 -39 58 -37 85 4 95 44 10 124 1 151 -17z m1537
-179 c8 -20 -30 -66 -53 -66 -27 0 -36 37 -14 61 20 22 59 25 67 5z m-1287
-761 c84 -28 196 -82 234 -113 21 -17 22 -22 11 -36 -28 -34 -97 -13 -227 67
-117 73 -128 82 -120 95 10 16 17 15 102 -13z"/>
<path d="M6680 5931 c-45 -14 -88 -40 -109 -66 -43 -55 6 -71 102 -34 112 43
155 110 70 108 -21 0 -49 -4 -63 -8z"/>
<path d="M6685 5720 c-22 -4 -87 -11 -145 -15 -137 -10 -152 -16 -148 -57 3
-31 6 -33 45 -36 55 -4 268 34 313 56 46 22 49 56 5 59 -16 1 -48 -2 -70 -7z"/>
<path d="M6719 5556 c-9 -10 -162 -36 -264 -46 -224 -21 -274 -35 -259 -73 24
-62 355 -37 505 39 48 24 63 43 53 69 -6 14 -25 20 -35 11z"/>
<path d="M5235 5139 c-9 -13 21 -46 58 -66 39 -20 43 -11 11 26 -33 39 -60 55
-69 40z"/>
<path d="M3555 5448 c-46 -66 -87 -302 -89 -513 -1 -132 0 -140 18 -140 29 0
42 53 76 318 40 317 39 397 -5 335z"/>
<path d="M4294 4284 c-27 -40 -12 -240 47 -618 51 -336 97 -507 155 -584 24
-31 28 -33 39 -18 15 20 4 88 -44 266 -59 222 -85 406 -105 737 -8 144 -16
216 -25 227 -20 24 -48 19 -67 -10z"/>
<path d="M4157 4136 c-14 -35 -18 -180 -8 -266 36 -300 134 -710 171 -710 17
0 11 79 -15 218 -36 191 -51 295 -75 497 -21 185 -24 200 -42 248 -11 30 -23
35 -31 13z"/>
<path d="M3615 4058 c-15 -46 -26 -109 -36 -218 -10 -98 -9 -140 0 -197 13
-77 64 -193 101 -231 19 -21 24 -22 37 -10 10 11 11 21 4 39 -14 39 -30 158
-46 363 -8 103 -19 206 -25 227 -11 39 -27 51 -35 27z"/>
<path d="M3975 3998 c-14 -29 -25 -71 -25 -93 0 -61 27 -203 75 -392 49 -194
89 -288 120 -288 31 0 30 31 -9 198 -49 211 -63 282 -86 437 -33 221 -35 224
-75 138z"/>
<path d="M3794 3958 c-42 -80 -24 -281 42 -478 39 -116 57 -150 79 -150 30 0
37 41 21 115 -8 39 -24 113 -35 165 -11 52 -24 147 -30 210 -10 125 -22 170
-45 170 -9 0 -23 -15 -32 -32z"/>
<path d="M5023 3088 c-38 -41 -63 -89 -63 -123 0 -24 8 -30 40 -25 43 6 98
105 86 155 -9 34 -26 32 -63 -7z"/>
<path d="M2690 4420 c-30 -30 -28 -104 4 -125 73 -48 158 71 90 124 -34 26
-68 27 -94 1z"/>
<path d="M6353 1564 c-32 -49 -13 -134 30 -134 45 1 94 62 81 103 -18 60 -80
78 -111 31z"/>
<path d="M6262 1404 c-38 -26 -57 -149 -28 -173 33 -27 96 39 96 101 0 68 -30
99 -68 72z"/>
<path d="M5894 1235 c-16 -12 -17 -16 -5 -24 37 -24 175 -24 211 0 13 8 12 12
-4 24 -14 10 -45 15 -101 15 -56 0 -87 -5 -101 -15z"/>
</g>
</svg>
